<svg width="56" height="55" viewBox="0 0 56 55" fill="none" xmlns="http://www.w3.org/2000/svg">
<path d="M51.3333 38.7749V45.6499C51.336 46.2881 51.2029 46.9199 50.9425 47.5047C50.6822 48.0894 50.3004 48.6144 49.8215 49.0458C49.3427 49.4773 48.7773 49.8058 48.1618 50.0103C47.5462 50.2147 46.8939 50.2907 46.2467 50.2332C39.0666 49.467 32.1697 47.0573 26.11 43.1978C20.4723 39.6793 15.6925 34.9849 12.11 29.4478C8.16662 23.4693 5.71257 16.6626 4.94667 9.57906C4.88836 8.94534 4.96505 8.30664 5.17184 7.70362C5.37863 7.1006 5.71101 6.54648 6.14779 6.07653C6.58458 5.60658 7.11622 5.23111 7.70885 4.97401C8.30149 4.71691 8.94213 4.58383 9.59001 4.58323H16.59C17.7224 4.57228 18.8202 4.96612 19.6788 5.69133C20.5374 6.41653 21.0982 7.42363 21.2567 8.5249C21.5521 10.725 22.1001 12.8853 22.89 14.9645C23.2039 15.7847 23.2719 16.6762 23.0858 17.5332C22.8997 18.3902 22.4674 19.1768 21.84 19.7999L18.8767 22.7103C22.1983 28.4476 27.0351 33.198 32.8767 36.4603L35.84 33.5499C36.4744 32.9338 37.2754 32.5091 38.148 32.3264C39.0205 32.1436 39.9282 32.2103 40.7633 32.5186C42.8803 33.2945 45.0799 33.8326 47.32 34.1228C48.4535 34.2799 49.4886 34.8406 50.2286 35.6983C50.9686 36.5561 51.3617 37.651 51.3333 38.7749Z" stroke="#E0E0E0" stroke-width="4" stroke-linecap="round" stroke-linejoin="round"/>
</svg>
