<svg width="60" height="60" viewBox="0 0 60 60" fill="none" xmlns="http://www.w3.org/2000/svg">
<path d="M57.5 7.50024C55.106 9.18893 52.4553 10.4805 49.65 11.3252C48.1444 9.59401 46.1433 8.36697 43.9176 7.81005C41.6918 7.25314 39.3487 7.39323 37.2052 8.21137C35.0617 9.02951 33.2211 10.4862 31.9325 12.3845C30.6438 14.2828 29.9692 16.5311 30 18.8252V21.3252C25.6066 21.4392 21.2532 20.4648 17.3275 18.4889C13.4019 16.5129 10.0258 13.5968 7.5 10.0002C7.5 10.0002 -2.5 32.5002 20 42.5002C14.8513 45.9952 8.71789 47.7476 2.5 47.5002C25 60.0002 52.5 47.5002 52.5 18.7502C52.4977 18.0539 52.4307 17.3592 52.3 16.6752C54.8515 14.159 56.6521 10.982 57.5 7.50024Z" stroke="#E0E0E0" stroke-width="4" stroke-linecap="round" stroke-linejoin="round"/>
</svg>
