<svg width="51" height="51" viewBox="0 0 51 51" fill="none" xmlns="http://www.w3.org/2000/svg">
<path d="M42.02 0.719971H8.98C4.41812 0.719971 0.720001 4.41809 0.720001 8.97997V42.02C0.720001 46.5819 4.41812 50.28 8.98 50.28H42.02C46.5819 50.28 50.28 46.5819 50.28 42.02V8.97997C50.28 4.41809 46.5819 0.719971 42.02 0.719971ZM31.374 39.66L23.6568 28.6954L14.29 39.66H11.34L22.3234 26.8015L11.4415 11.34H20.8071L27.4588 20.7906L35.53 11.34H38.48L28.791 22.6833L40.7385 39.66H31.374Z" fill="#FD7E14"/>
<path d="M15.9585 13.7L32.606 37.3H36.2215L19.574 13.7H15.9585Z" fill="#FD7E14"/>
</svg>
