<svg width="60" height="50" viewBox="0 0 60 50" fill="none" xmlns="http://www.w3.org/2000/svg">
<g clip-path="url(#clip0_34_526)">
<path d="M26.25 9.375V0H33.75V9.375H26.25Z" fill="white"/>
<path d="M33.75 40.625V50H26.25V40.625H33.75Z" fill="white"/>
<path d="M41.25 25C41.25 30.1777 36.2132 34.375 30 34.375C23.7868 34.375 18.75 30.1777 18.75 25C18.75 19.8223 23.7868 15.625 30 15.625C36.2132 15.625 41.25 19.8223 41.25 25Z" fill="white"/>
<path d="M0 28.125H11.25V21.875H0V28.125Z" fill="white"/>
<path d="M60 21.875H48.75V28.125H60V21.875Z" fill="white"/>
<path d="M14.09 16.1611L6.13501 9.53199L11.4383 5.11255L19.3933 11.7417L14.09 16.1611Z" fill="white"/>
<path d="M45.9097 33.8389L53.8649 40.4679L48.5613 44.8876L40.6064 38.2582L45.9097 33.8389Z" fill="white"/>
<path d="M11.4383 44.8876L19.3933 38.2582L14.09 33.8389L6.13501 40.4682L11.4383 44.8876Z" fill="white"/>
<path d="M48.5613 5.11255L40.6064 11.7417L45.9097 16.1611L53.8649 9.53199L48.5613 5.11255Z" fill="white"/>
</g>
<defs>
<clipPath id="clip0_34_526">
<rect width="60" height="50" fill="white"/>
</clipPath>
</defs>
</svg>
