<svg width="44" height="48" viewBox="0 0 44 48" fill="none" xmlns="http://www.w3.org/2000/svg">
<path d="M31.7706 13H31.7888M12.7082 4H30.8629C35.8762 4 39.9403 8.47715 39.9403 14V34C39.9403 39.5228 35.8762 44 30.8629 44H12.7082C7.69493 44 3.63086 39.5228 3.63086 34V14C3.63086 8.47715 7.69493 4 12.7082 4ZM29.0474 22.74C29.2715 24.4045 29.0134 26.1044 28.3099 27.598C27.6064 29.0916 26.4933 30.3028 25.129 31.0593C23.7646 31.8159 22.2185 32.0792 20.7104 31.8119C19.2024 31.5445 17.8092 30.7602 16.7292 29.5703C15.6491 28.3805 14.9371 26.8457 14.6945 25.1844C14.4518 23.5231 14.6908 21.8198 15.3775 20.3167C16.0643 18.8137 17.1637 17.5875 18.5195 16.8125C19.8753 16.0375 21.4184 15.7532 22.9293 16C24.4705 16.2518 25.8973 17.0429 26.999 18.2566C28.1007 19.4703 28.8189 21.0422 29.0474 22.74Z" stroke="#F5F5F5" stroke-width="4" stroke-linecap="round" stroke-linejoin="round"/>
</svg>
