<svg width="54" height="54" viewBox="0 0 54 54" fill="none" xmlns="http://www.w3.org/2000/svg">
<g clip-path="url(#clip0_34_526)">
<path d="M23.625 10.125V0H30.375V10.125H23.625Z" fill="white"/>
<path d="M30.375 43.875V54H23.625V43.875H30.375Z" fill="white"/>
<path d="M37.125 27C37.125 32.5919 32.5919 37.125 27 37.125C21.4081 37.125 16.875 32.5919 16.875 27C16.875 21.4081 21.4081 16.875 27 16.875C32.5919 16.875 37.125 21.4081 37.125 27Z" fill="white"/>
<path d="M0 30.375H10.125V23.625H0V30.375Z" fill="white"/>
<path d="M54 23.625H43.875V30.375H54V23.625Z" fill="white"/>
<path d="M12.6809 17.4539L5.52148 10.2945L10.2945 5.52148L17.4539 12.6809L12.6809 17.4539Z" fill="white"/>
<path d="M41.3188 36.5459L48.4786 43.7053L43.7053 48.4786L36.5459 41.3188L41.3188 36.5459Z" fill="white"/>
<path d="M10.2945 48.4786L17.4539 41.3188L12.6809 36.5459L5.52148 43.7056L10.2945 48.4786Z" fill="white"/>
<path d="M43.7053 5.52173L36.5459 12.6812L41.3188 17.4542L48.4786 10.2947L43.7053 5.52173Z" fill="white"/>
</g>
<defs>
<clipPath id="clip0_34_526">
<rect width="54" height="54" fill="white"/>
</clipPath>
</defs>
</svg>
