<svg width="44" height="48" viewBox="0 0 44 48" fill="none" xmlns="http://www.w3.org/2000/svg">
<g clip-path="url(#clip0_106_107)">
<path d="M41.7846 6.00009C40.0461 7.35105 38.1212 8.38431 36.084 9.06009C34.9906 7.67511 33.5375 6.69348 31.9212 6.24794C30.3049 5.80241 28.6033 5.91448 27.0467 6.569C25.4901 7.22351 24.1535 8.38889 23.2177 9.90753C22.2819 11.4262 21.7921 13.2248 21.8144 15.0601V17.0601C18.624 17.1512 15.4626 16.3717 12.6118 14.791C9.76104 13.2103 7.30938 10.8774 5.47518 8.00009C5.47518 8.00009 -1.7867 26.0001 14.5525 34.0001C10.8136 36.796 6.3596 38.198 1.84424 38.0001C18.1835 48.0001 38.1536 38.0001 38.1536 15.0001C38.152 14.443 38.1033 13.8873 38.0084 13.3401C39.8613 11.3271 41.1688 8.78552 41.7846 6.00009Z" stroke="#F5F5F5" stroke-width="4" stroke-linecap="round" stroke-linejoin="round"/>
</g>
<defs>
<clipPath id="clip0_106_107">
<rect width="43.5713" height="48" fill="white" transform="translate(0.0288086)"/>
</clipPath>
</defs>
</svg>
