<svg width="44" height="48" viewBox="0 0 44 48" fill="none" xmlns="http://www.w3.org/2000/svg">
<g clip-path="url(#clip0_106_109)">
<path d="M41.2733 12.84C41.0576 11.8908 40.6184 11.0211 40 10.3188C39.3816 9.61648 38.6059 9.10637 37.7512 8.84C34.6286 8 22.1382 8 22.1382 8C22.1382 8 9.64777 8 6.52516 8.92C5.67052 9.18637 4.89482 9.69648 4.27642 10.3988C3.65802 11.1011 3.2188 11.9708 3.00315 12.92C2.43166 16.4111 2.15212 19.9526 2.16803 23.5C2.14766 27.0741 2.42722 30.6426 3.00315 34.16C3.2409 35.0797 3.68995 35.9163 4.30691 36.589C4.92388 37.2616 5.6879 37.7476 6.52516 38C9.64777 38.92 22.1382 38.92 22.1382 38.92C22.1382 38.92 34.6286 38.92 37.7512 38C38.6059 37.7336 39.3816 37.2235 40 36.5212C40.6184 35.8189 41.0576 34.9492 41.2733 34C41.8403 30.5352 42.1199 27.0207 42.1084 23.5C42.1287 19.9259 41.8492 16.3574 41.2733 12.84Z" stroke="#F5F5F5" stroke-width="4" stroke-linecap="round" stroke-linejoin="round"/>
<path d="M18.0534 30.04L28.4923 23.5L18.0534 16.96V30.04Z" stroke="#F5F5F5" stroke-width="4" stroke-linecap="round" stroke-linejoin="round"/>
</g>
<defs>
<clipPath id="clip0_106_109">
<rect width="43.5713" height="48" fill="white" transform="translate(0.352539)"/>
</clipPath>
</defs>
</svg>
